<?xml version="1.0" encoding="iso-8859-1"?>
<svg version="1.1" id="Capa_1" xmlns="http://www.w3.org/2000/svg" xmlns:xlink="http://www.w3.org/1999/xlink" x="0px" y="0px"
	 viewBox="0 0 406.802 406.802" style="enable-background:new 0 0 406.802 406.802;" xml:space="preserve">
<g>
	<g>
		<path d="M377.962,152.882h-275.6l266.24-77.44c4.242-1.237,6.677-5.678,5.44-9.92l-17.36-59.76
			c-1.237-4.242-5.678-6.677-9.92-5.44l-320,93.28c-4.242,1.237-6.677,5.678-5.44,9.92l16,54.4c-0.363,0.917-0.552,1.894-0.56,2.88
			v62c-0.013,4.18,3.193,7.666,7.36,8v160c0,8.837,7.163,16,16,16h301.68c8.837,0,16-7.163,16-16v-160c4.418,0,8-3.582,8-8v-61.92
			C385.803,156.526,382.318,152.969,377.962,152.882z M352.202,168.882l-38.96,46h-31.52l38.96-46H352.202z M299.722,168.882
			l-38.96,46h-31.6l38.96-46H299.722z M247.242,168.882l-38.96,46h-31.6l38.96-46H247.242z M194.762,168.882l-39.28,46h-31.28
			l39.28-46H194.762z M110.682,168.882h31.52l-38.96,46h-31.52L110.682,168.882z M343.562,17.922l11.92,40.56l-46.16-30.48
			L343.562,17.922z M289.082,33.922l50.4,33.52l-30.24,8.8l-50.4-33.6L289.082,33.922z M238.682,48.642l50.24,33.28l-30.24,8.8
			l-50.24-33.28L238.682,48.642z M188.282,63.362l50.24,33.28l-30.24,8.8l-50.24-33.28L188.282,63.362z M137.882,78.082l50.24,33.28
			l-30.24,8.8l-50.4-33.44L137.882,78.082z M87.482,92.802l50.24,33.28l-30.24,8.64l-50.24-33.28L87.482,92.802z M39.482,108.802
			l48,32l-36,10.16L39.482,108.802z M52.522,168.882h37.12l-37.12,43.92V168.882z M361.802,391.042H59.882v-160h301.92V391.042z
			 M369.882,215.042h-35.68l35.76-42.24L369.882,215.042z"/>
	</g>
</g>
<g>
	<g>
		<path d="M199.002,323.442h-106c-8.837,0-16,7.163-16,16v18.4c0,8.837,7.163,16,16,16h106c8.837,0,16-7.163,16-16c0,0,0,0,0,0
			v-18.4C215.002,330.606,207.839,323.442,199.002,323.442z M199.002,357.842h-106v-18.4h106V357.842z"/>
	</g>
</g>
<g>
	<g>
		<path d="M339.482,259.842c-4.418,0-8,3.582-8,8v86c0,4.418,3.582,8,8,8s8-3.582,8-8v-86
			C347.482,263.424,343.9,259.842,339.482,259.842z"/>
	</g>
</g>
<g>
</g>
<g>
</g>
<g>
</g>
<g>
</g>
<g>
</g>
<g>
</g>
<g>
</g>
<g>
</g>
<g>
</g>
<g>
</g>
<g>
</g>
<g>
</g>
<g>
</g>
<g>
</g>
<g>
</g>
</svg>
